<?xml version="1.0" encoding="UTF-8"?>
<svg version="1.1" viewBox="0 0 1946 2048" width="192" height="202" xmlns="http://www.w3.org/2000/svg">
<path transform="translate(0)" d="m0 0h1946v2048h-1946z" fill="#F02829"/>
<path transform="translate(1496,527)" d="m0 0 2 3 4 21 10 33 12 42 14 50 10 33 5 18v3l10-2 15-6 53-18 114-40 55-19 30-11 26-9 10-4 1 5-5 14-12 28-9 20-12 27-11 27-36 84-16 34-11 23-12 30-5 11-1 5 12 5 22 8 46 17 44 17 73 27v4l-10 8-11 7-16 13-11 9-13 11-11 9-16 13-14 11-34 28-14 11-16 13-11 9-17 14-13 10-17 14-13 11-28 22-13 11-11 9-16 13-12 9-14 12-11 9-17 14-14 11-13 11-11 9-16 13-13 10-32 26-14 11-16 13-22 18-16 13-14 11-13 11-14 11-16 13-14 11-14 12-14 11-16 13-22 18-17 14-13 10-14 12-14 11-13 11-13 10-13 11-14 11-12 10-14 11-26 22-28 22-17 14-14 11-18 14-14 10-5 2-19-19-7-8-12-14-12-13-20-20-8-7-6-7-1-3 8-10 9-10 7-11 10-21 6-20 2-12v-8l-3-16-7-21-9-15-9-11-12-12-11-8-19-9-22-5h-19l-22 5-16 7-15 10-15 14-18 22-3 5-4-2-8-7-17-16-8-7-16-15-11-9-13-12-8-7-13-12-8-7-2-3 1-4 14-15 9-10 7-7 7-8 14-15 7-8 11-12 7-8 14-15 7-8 12-13 14-15 7-7 7-8 15-16 9-10 16-17 11-12 7-8 14-15 7-8 9-9 7-8 10-10 7-8 12-13 29-31 9-10 12-14 10-11 7-8 12-13 11-12 12-13 15-16 11-12 14-15 11-12 18-20 11-12 9-10 12-12 7-8 22-24 15-16 7-7 7-8 14-15 7-8 10-11 7-8 12-13 10-11 7-8 12-13 31-33 9-10 7-8 11-12 3-4h2l2-4 16-17 12-13 11-12 14-15 24-26 14-15 11-12 9-10 24-26 7-8 14-15 9-8z" fill="#F02829"/>
<path transform="translate(451,508)" d="m0 0 4 1 9 11 10 13 7 9 11 13 10 11 9 11 7 7 9 11 12 14 12 13 9 11 13 14 9 11 9 10 7 8 9 10 11 13 12 14 11 12 9 11 11 12 7 8 12 13 9 10 9 11 12 14 5 6v2h2l9 11 14 15 7 8 11 13 9 10 7 8 10 11 9 11 7 8 11 13 12 14 12 13 9 11 8 8 7 8 10 11 9 11 12 13 5 6v2h2l9 11 7 7 7 8 12 12 4 5v6l-4 6-9 10-39 45-11 13-10 12-6 7-3 2-4-1-11-10-9-7-11-9-12-7-17-7-19-4h-16l-25 4-16 7-14 9-8 7-9 11-7 10-6 10-5 10-5 17-1 7v15l3 19 6 16 7 14 7 11 9 11 10 9 11 8 4 3-2 6-8 10-8 9-11 14-12 14-9 11-7 7-9 11-9 9-4 6-7-4-12-9-15-11-19-14-36-26-34-24-16-11-28-20-36-26-17-12-18-13-14-10-54-39-17-12-42-30-23-16-18-13-17-12-18-13-19-13-16-12-23-16-17-12-18-13-17-12-40-28-19-14-5-5-1-3 23-10 31-11 28-11 50-19 27-10 27-11 5-2-1-7-9-20-15-33-13-30-11-26-18-41-12-28-10-24-14-32-11-28-5-11-4-13 7 1 20 7 29 11 49 17 88 31 34 12 53 18 19 7h3l6-23 8-26 14-48 20-65 10-32z" fill="#F02829"/>
<path transform="translate(970,18)" d="m0 0 3 1 4 7 8 21 11 26 13 30 38 84 18 41 17 38 11 25 17 38 5-1 9-4 88-44 23-11 56-28 17-9h2l-1 14-7 53-6 48-7 51-12 93-8 57-10 72-5 37-3 19-3 29-2 8-5 9-11 14-13 15-9 11-11 13-13 15-9 11-9 10-12 14-11 13-7 8-12 14-9 10-9 11-13 16-7 8-3 2-5-1-12-11-16-12-18-11-16-7-25-7-15-2h-17l-16 3-24 7-17 8-14 9-9 7-14 12-6 6-5-1-11-12-11-14-11-13-11-14-14-17-48-56-9-11-7-7-7-8-12-14-11-13-7-11-3-9-3-18-5-38-8-64-13-98-9-68-10-73-6-45-8-65v-5l15 6 19 10 28 13 19 10 58 29 41 20 14 7 3 2h3l6-16 13-30 18-41 14-31 9-20 28-63 18-40 10-21 11-26 11-23z" fill="#F02829"/>
<path transform="translate(1496,527)" d="m0 0 2 3 4 21 10 33 12 42 14 50 10 33 5 18v3l10-2 15-6 53-18 114-40 55-19 30-11 26-9 10-4 1 5-5 14-12 28-9 20-12 27-11 27-36 84-16 34-11 23-12 30-5 11-1 5 12 5 22 8 46 17 44 17 73 27v4l-10 8-11 7-16 13-11 9-13 11-11 9-16 13-14 11-34 28-14 11-16 13-11 9-17 14-13 10-17 14-13 11-28 22-13 11-11 9-16 13-12 9-14 12-11 9-17 14-14 11-13 11-11 9-16 13-13 10-32 26-14 11-16 13-22 18-16 13-14 11-13 11-14 11-16 13-14 11-14 12-14 11-16 13-22 18-17 14-13 10-14 12-14 11-13 11-13 10-13 11-14 11-12 10-14 11-26 22-28 22-17 14-14 11-18 14-14 10-5 2-19-19-7-8-12-14-12-13-20-20-8-7-6-7-1-3 8-10 9-10 7-11 10-21 6-20 2-12v-8l-3-16-7-21-9-15-9-11-12-12-11-8-19-9-22-5h-19l-22 5-16 7-15 10-15 14-18 22-3 5-4-2-8-7-17-16-8-7-16-15-11-9-13-12-8-7-13-12-8-7-2-3 1-4 14-15 9-10 7-7 7-8 14-15 7-8 11-12 7-8 14-15 7-8 12-13 14-15 7-7 7-8 15-16 9-10 16-17 11-12 7-8 14-15 7-8 9-9 7-8 10-10 7-8 12-13 29-31 9-10 12-14 10-11 7-8 12-13 11-12 12-13 15-16 11-12 14-15 11-12 18-20 11-12 9-10 12-12 7-8 22-24 15-16 7-7 7-8 14-15 7-8 10-11 7-8 12-13 10-11 7-8 12-13 31-33 9-10 7-8 11-12 3-4h2l2-4 16-17 12-13 11-12 14-15 24-26 14-15 11-12 9-10 24-26 7-8 14-15 9-8zm-33 128-6 4-7 7-7 8-11 12-12 13-7 8-14 15-10 11-7 8-14 15-7 8-24 26-11 12-7 7-7 8-14 15-9 10-15 16-9 10-11 12-7 8-12 13-10 10-7 8-15 16-16 17-11 12-9 10-15 16-7 8-12 13-9 10-33 36-16 16-7 8-14 15-7 8-36 39-9 10-11 12-17 17-7 8-10 10v8l7 7 8 7 9 9 7 8 13 11 11 8 4 4-1 8-7 8-9 8-8 10-6 8-5-1-6-4-13-12-4-5-8-7-8-8-8-7-13-13-4 1-7 6-7 9-10 11-7 8-16 17-11 12-17 17-7 8-15 16-12 13-7 8-11 12-10 10-9 11-10 12-8 11v7l5 4h7l8-4 8-5 13-6 35-12 17-3 15-2h19l25 4 18 6 20 9 10 5 11 7 11 9 9 8 9 11 10 14 11 19 8 18 7 23 3 16 1 9v17l-4 20-5 17-4 11-6 19v12l2 2 7-1 8-6 13-11 16-12 17-14 10-8 14-12 30-24 16-13 13-11 10-8 11-9 10-9 9-7 1-5-8-9-6-4h-2l-2-4-14-12-15-14-6-7v-5l9-10 24-24v-2l6 2 4 4 4 7 6 7 5 5 13 11 10 9 7 8 6 5 7 1 8-7 11-10 11-9 17-14 14-11 33-27 15-12 14-11 14-12 14-11 11-9 16-13 14-12 11-9 16-13 17-13 15-13 14-11 17-14 14-11 17-14 14-11 11-9 10-8 16-13 14-11 17-14 13-11 13-10 11-9 16-13 13-11 13-10 11-9 16-13 13-11 14-11 13-11 15-13 3-3-1-3-16-6-44-16-15-6-17-6-44-17-14-5-2-3 1-6 7-12 14-33 11-26 16-38 14-32 11-26 8-19 12-29 3-7v-5l-7 1-49 16-135 46-28 10-11 4h-5l-6-7-17-54-17-60-10-29-1-2z" fill="#030203"/>
<path transform="translate(451,508)" d="m0 0 4 1 9 11 10 13 7 9 11 13 10 11 9 11 7 7 9 11 12 14 12 13 9 11 13 14 9 11 9 10 7 8 9 10 11 13 12 14 11 12 9 11 11 12 7 8 12 13 9 10 9 11 12 14 5 6v2h2l9 11 14 15 7 8 11 13 9 10 7 8 10 11 9 11 7 8 11 13 12 14 12 13 9 11 8 8 7 8 10 11 9 11 12 13 5 6v2h2l9 11 7 7 7 8 12 12 4 5v6l-4 6-9 10-39 45-11 13-10 12-6 7-3 2-4-1-11-10-9-7-11-9-12-7-17-7-19-4h-16l-25 4-16 7-14 9-8 7-9 11-7 10-6 10-5 10-5 17-1 7v15l3 19 6 16 7 14 7 11 9 11 10 9 11 8 4 3-2 6-8 10-8 9-11 14-12 14-9 11-7 7-9 11-9 9-4 6-7-4-12-9-15-11-19-14-36-26-34-24-16-11-28-20-36-26-17-12-18-13-14-10-54-39-17-12-42-30-23-16-18-13-17-12-18-13-19-13-16-12-23-16-17-12-18-13-17-12-40-28-19-14-5-5-1-3 23-10 31-11 28-11 50-19 27-10 27-11 5-2-1-7-9-20-15-33-13-30-11-26-18-41-12-28-10-24-14-32-11-28-5-11-4-13 7 1 20 7 29 11 49 17 88 31 34 12 53 18 19 7h3l6-23 8-26 14-48 20-65 10-32zm26 129-2 5-4 16-9 30-7 25-8 25-8 26-4 17-2 4-6-1-15-6-29-10-74-26-36-12-44-15-24-8-4 1 12 26 8 20 14 34 24 54 13 30 11 25 13 29 1 6-5 3-18 6-42 15-16 6-42 15-20 8 1 4 8 7 11 8 9 7 28 21 12 8 17 12 18 13 11 7 10 8 17 12 15 11 18 13 34 24 16 11 17 12 12 9 4-1 10-14 13-16 8-10 13-16 6-8 6 1 12 13 10 8 8 5 5 4-1 4-6 9-16 17-12 14-9 10-4 8 1 5 5 4 10 7 19 14 16 11 10 7 17 12 19 13 10 8 15 10 23 16 7 5h2l2 4 9 5 6 3h2v-6l-16-32-9-25-4-17-2-15v-33l5-22 8-21 12-23 12-16 12-13 7-7 11-9 18-12 17-8 22-7 18-3 8-1h22l34 5 27 8 15 5h11l-1-5-9-14-12-13-9-11-7-7-7-8-9-10-9-11-10-11-7-8-13-15-9-10-9-11-15-16-12-14-9-10-5 1-6 10-10 13-11 12-7 8-12 14-7 8-3 2h-5l-15-13-8-6-10-9-2-2 1-5 11-13 9-11 12-15 9-11 9-10 7-8 5-4-1-7-8-10-15-16-7-8-11-13-11-12-7-8-10-11-9-11-11-12-9-11-13-14-9-11-11-12-9-11-15-16-10-11-9-11-17-17z" fill="#030203"/>
<path transform="translate(970,18)" d="m0 0 3 1 4 7 8 21 11 26 13 30 38 84 18 41 17 38 11 25 17 38 5-1 9-4 88-44 23-11 56-28 17-9h2l-1 14-7 53-6 48-7 51-12 93-8 57-10 72-5 37-3 19-3 29-2 8-5 9-11 14-13 15-9 11-11 13-13 15-9 11-9 10-12 14-11 13-7 8-12 14-9 10-9 11-13 16-7 8-3 2-5-1-12-11-16-12-18-11-16-7-25-7-15-2h-17l-16 3-24 7-17 8-14 9-9 7-14 12-6 6-5-1-11-12-11-14-11-13-11-14-14-17-48-56-9-11-7-7-7-8-12-14-11-13-7-11-3-9-3-18-5-38-8-64-13-98-9-68-10-73-6-45-8-65v-5l15 6 19 10 28 13 19 10 58 29 41 20 14 7 3 2h3l6-16 13-30 18-41 14-31 9-20 28-63 18-40 10-21 11-26 11-23zm-1 158-4 9-8 16-17 37-16 36-13 30-7 15-8 18-7 15-13 28-14 29-1 1h-8l-18-7-19-9-54-27-28-13-14-7-10-4-4 1 2 7 7 56 7 50 3 21 5 40 15 108 3 25 2 4 8 1 100-1v24l-1 30-6 1h-77l1 4 8 10 10 13 14 17 11 12 9 11 14 17 11 14 9 13 7 1 12-5 25-10 13-4 29-6 12-2h22l18 3 31 8 19 7 18 8 9 1 7-10 8-11 11-13 7-8 18-20 11-13 10-13 11-15 5-6v-2l-2-1h-71l-9-2-1-2v-36l1-15 40 1h39l27-1 3-1 3-20 12-89 7-56 9-69 7-51 3-25-6 1-17 7-23 11-18 8-56 28-23 13-4 2-5-1-7-12-16-36-9-20-10-23-18-41-18-39-9-21-11-24-7-16-4-5z" fill="#030203"/>
<path transform="translate(948,1725)" d="m0 0 6 5 9 11 13 15 12 13 7 8 13 13 1 16 1 45v43l-2 99-1 4-6 2-10 1h-23l-18-1-6-1 1-185 1-82z" fill="#030203"/>
<path transform="translate(1309,230)" d="m0 0 3 1-1 17-5 36-6 50-6 40-6 50-3 22-1 3-4 35-9 64-4 31-3 23-4 36-3 21-4 24-2 17-3 13-9 15-9 10-8 10-11 14-5 6-6 8h-2l-2 4-10 12-3 4h-2l-2 4-13 15-10 13-6 7-9 12-4 4-4 6-5 5h-2l-1 5-2 3h-2v4l-2 2v3 2l-5 5-5 6-4 2-3 4-4 2-1 3-4 3h-2v2h-2l-1 3-2 1h-6l-10-8-2-1v-2l-5-2-6-5-8-7-5-3-1-2-5-2-3-1v-2l-9-3-7-2-7-1-2 1 2 4-1 1-10 1h-16l-2-1h-11l-4 1h-7l-1-1-17-1-13-1-5-2h-8l-13 5h-3v2l-18 11-8 7-1 2h-2l-2 4-6 7h-2v2l-6 1-6-5-4-4-6-1-1 3-1-2-4 1v-2h-3v-2l-6-2-11-8-6-5v-2l-6-2-2-1-2-5-11-9-6-8-8-6v-2l-4-2-3-4-5-4-5-6-3-2v-2l-5-2-4-3-2-4-5-1v-3l-3-2-2-7-5-2-1-4h-2l-1-5-5-4-5-8-7-4-2-7-6-3-4 1-1-6 1-2h-3v-2l-4-1h-3l-2-7h-2l-2-7-2-4-2-2-1-5-2-4-2-2 1-4h2l-3-10v-6h-2l-1-4 3-3-1-10 2-6h-2l1-18 1-11 3-5v-3h2l-2-9 1-9 2-6h2l-1-21-2-1-1-11-5-5-2-4v-13l-2-5 2-9 2-1v-12l-5-37-2-5-1-9-2-1-1-5 2-8-4-35-4-29-2-12-4-33-6-38-3-29-5-35-4-36 4-1 1 2h-2l2 19 4 34 7 55 8 57 7 51 6 47 12 90 8 64 6 44 3 15 4 10 11 14 12 14 11 12 7 8 9 10 9 11 13 15 9 11 10 11 9 11 14 17 8 10 14 17 13 16 8 9 5-1 8-8 11-9 10-8 17-10 16-7 25-7 12-2h17l19 3 24 7 17 8 18 12 14 11 11 10 5-1 5-5 10-11 10-13 12-13 9-11 11-12 8-10 12-14 11-12 8-10 24-28 9-11 12-14 9-11 8-11 4-8 3-24 2-17 6-42 5-39 5-33 7-52 6-45 9-68 6-44 8-64 7-51-2-1z" fill="#C91E27"/>
<path transform="translate(451,505)" d="m0 0 4 2 7 7 8 11 10 13 12 12 6 8 5 4 7 9 12 13 9 11 2 4h2l3 4v2l3 1v2l3 1 8 10 1 3h2l7 8 2 4h2l5 6v2h2l9 11 2 4h2l2 5 4 2 1 3h2l7 8 2 4 3 1 2 5h2l4 5 12 12 3 4v2l4 2 9 11 3 2v2h2l3 5 5 5 8 9 9 11 4 2-1 2 3 1 5 6h2v3l3 1v2l3 1v2h2l9 11 1 3h2l6 8v2l3 1 8 11 4 2 3 5v2h3l4 6 5 8 2 1v2h2l9 12 10 11 4 5v2l3 1v2h2l9 11 1 3 3 1v2l4 2 13 15 7 9 7 8 4 5v2h2v2l3 1v2h2l7 9 14 15 10 11 6 8 9 11v2h2l6 7 9 11 7 8 5 6 5 5 7 8 4 4 6 7 4 2 5 6v2l3 1 1 2v7l-5 9-10 11-9 11-5 7-5 5-13 17-8 9-9 11-8 8-6 9-6 5-5-2-10-9-7-7-8-7-4-3v-2l-5-2-7-5-10-4-9-4-21-3h-20l-11 1-16 5-14 8-10 8-13 13-6 9-4 7-3 6-5 15-1 10-1 4v16l-1 5v6h2l-1 7 4 15 1 4h2l1 4 2 1 3 7 5 7 3 1 2 5v3h2l8 10 10 4h4v2l5-2 4 2 2 7-2 5-9 14-1 5-4 4 2 5-2 6-2 3 2 3-2 3h-3l-1 8 4-5 9-4h2l-1-3 9-1 1-6 3 1v-2l7-1 5-5 6-5 6-7h2v-3l5-2 2-5 3-3h2l2-4 10-9 14-14 7-8 4-5v-3l3-4h4v-1-3l7-8 35-35 1-2h2v-2l3-3h2v-2h2l1-3h2l2-4 14-14 7-8 7-7 1-2h2l2-4 3-1 2-4 10-10 7-8 11-12 2-7 3-1 1-3h2v-2h2v-3h2l1-3h2v-2h3v-2l3-3h2v-2l7-5 7-8 12-13 18-21h2l2-4 14-14 4-5h2l2-4 8-9 1-2h2v-6l2-2h4v-4l29-29 4-5h2l1-3h2v-2l7-6 7-8 10-10 7-8 11-11 1-2h2l2-4 11-11 9-11v-6l3-3v-4h3l-1-8 6-4 1-2h2v-2l7-2 4-2h3v-3h2v-2h3l-1-3h4l1-2 2-3 2 1 1-3h2v-2l3-2 5-6 8-7 5-5 12-13 11-12 9-10 13-14 2-4v-4h2v-2h2l1 2 5-6h-2l2-4h4l13-13 7-9h2l2-4 3-4h2l2-4 13-14 4-5h2v-2h2l2-4 8-8 7-8 16-17 8-9h2l2-4 8-8 6-8h2l2-4 9-9 5-7h2l3-6h2v-2h2l1-3h2v-2h2l2-4 10-10 7-8 14-15 9-9 7-8 3-4h2l2-4 12-12 2 1-11 11-7 8-13 14-7 8-15 16-9 10-11 12-12 13-14 15-11 12-14 15-12 13-11 12-13 14-1 2h-2l-2 4-8 8-7 8-13 15-8 8-7 8-8 8-7 8-8 8-7 8-10 11-7 8-15 16-7 8-27 30-14 15-7 7-7 8-7 7-7 8-13 14-7 8-13 13-7 8-12 13-18 20-11 12-12 13-14 15-11 12-15 16-22 24-12 14-9 10-7 8-12 13-11 12-29 31-7 8-10 10-7 8-9 9-7 8-11 12-12 13-7 8-29 31-9 10-14 15-7 7-7 8-16 17-7 8-12 13-11 12-7 8-11 12-9 10-12 13-16 17-7 8 1 4 6 7 8 7 12 11 14 12 11 10 8 7h-3l-11-10-6-4v-2l-4-2-5-5-9-7v-2h-2v-2l-4-2-4-3v-2l-4-2-14-14 1-4-4-4-2-3-7-1v-2l-5-2-12-11-5-5 4 2 10 7 4-5 10-10 9-11 7-7 9-11 12-14 7-9 11-13 8-10 2-6-19-14-9-9-6-8-10-16-7-16-4-14-2-14v-15l3-15 4-12 4-7 10-16 8-10 8-9 12-9 15-8 12-4 21-3h16l19 4 12 5 14 7 13 10 16 14 6 5 4-1 6-5 7-9 12-14 9-11 11-12 9-11 9-10 7-8 8-9 2-4v-6l-12-13-10-10-7-8-9-10v-2h-2l-9-11-11-12-9-11-14-15-7-8-10-11-9-11-7-7-9-11-8-9-7-8-8-10-11-12-7-8-10-11-9-11-10-11-7-8-10-11-6-7v-2h-2l-9-11-11-13-9-11-14-15-9-10-10-11-9-11-11-12-9-11-11-12-9-11-13-14-7-9-11-12-9-11-13-14-9-11-7-7-9-11-12-14-12-13-9-11-11-12-13-17-10-13-5-6h-3l-9 27-18 59-15 50-6 21h-1l1-8 5-18 7-25 9-28 4-13 9-30 8-26 5-12z" fill="#C91E27"/>
<path transform="translate(986,655)" d="m0 0h35l4 1v55l-66 1-34-1-9-1-2-1-1-3v-40l1-10z" fill="#030203"/>
<path transform="translate(571,978)" d="m0 0 7 6 9 11 15 11 8 6 1 3-9 11-9 9-9 11-9 10-9 11-12 14-12 13-3 1-11-9-13-10-10-9-5-5 1-4 12-13 7-8 12-13 9-11 12-14 8-10 9-10z" fill="#030203"/>
<path transform="translate(1060,1305)" d="m0 0 4 1 7 8 6 8 9 10 8 7 12 11 14 14 11 9 7 7-1 5-6 7-10 8-7 8-8 9-3 3-4-2-30-30-8-7-10-10-8-7-15-14-3-3 1-5 7-7 7-8 9-10 7-7z" fill="#030203"/>
<path transform="translate(1063,1087)" d="m0 0v3l-7 7-7 8-9 10-2 3h-2l-2 4-13 14-1 2h-2l-2 4-7 7-1 2h-2l-2 4-5 6h-2l-2 4-7 7-1 2h-2l-2 4-8 9h-2l-2 4-7 8-1 8 3 3v2l4 2 5 5 1 3 3 1 7 8 10 10 8 7 9 6 2 4h2l2 3-1 8-3 7-2 3 1 9 1 7 1 5 2 5h3l1-4h5l1 3 7-1v-2l19-4 10 2 10 15 1 3h2l5 5 11 12 25 25 8 6v2l5 2 5 4v2h2v2h2l1 6-7 10-6 9h-2l-1 6-3-1-2 6h-2l-2 6-6 7h-2v2l-6-2-9-8v-2h-2v-2l-4-2-8-7-4-5-5-5-8-6-2-4-2-1v-2h-2v-2h-2l-4-5-8-7-4-3v-2l-5-2-6-5-5-6-4-3 3-10 3-3-3-2 1-7 4-7-1-2 1-2-9-1h-3l-2-2h-2l-2 3h-8l-6 1-9-2-8-6-9-9v-2l-5-2-7-8-8-7v-2l-3-1v-2h-3l-5-6-8-7-5-6-2-1v-2h-3v-2l-6 3-8 10-12 14-8 8-7 8-8 8-7 8-12 12-4 5h-2l-2 4-9 9-1 2h-2l-2 4-7 7-7 8-12 14-1 2h-2l-2 4-7 7-4 5-5 5h-2l-2 4-3 4h-2l-2 4-11 13-5 8 1 4 4 2 9-3 19-10 13-5 6-2 2 1v-2l19-5 8-4 5-1v-2h6v-2h7l8-1h18l15 3 4 2 1 1v2l11 2 19 7 20 9 13 7 8 5 5 6 6 4 4 6 5 4 6 9 2 1v3h2l16 32 4 9-1 3-10-21-14-22-9-11-8-9-11-9-11-8-10-6-25-11-18-6-25-4h-19l-23 3-15 4-34 12-15 8-7 4-2 1h-7l-5-4v-7l6-8 7-9 11-13 11-12 10-10 7-8 11-12 7-8 16-17 11-12 17-17 7-8 15-16 10-11 9-11 7-8 3-2 4 1 18 18 8 7 8 8 5 4 6 7 8 7 7 5 5-1 9-12 10-11 8-7 3-7-1-5-8-7-13-10-12-11-7-8-9-9-8-7-1-1v-8l8-9 8-7 7-8 19-19 7-8 12-13 9-10 14-15 11-12 9-10zm-3 218-12 13-14 15-7 8-2 2 1 5 11 11 8 7 15 14 7 7 8 7 26 26 4-1 8-10 12-12 10-9 3-4-1-5-7-7-11-9-21-21-8-7-9-8-9-11-6-8-3-3z" fill="#C91E27"/>
<path transform="translate(1655,953)" d="m0 0 1 2-2 4 1 5 3 3 12 4 55 21 65 24 16 6v4l-12 11-8 7-11 9-16 13-11 9-17 14-10 8-14 11-13 11-16 13-10 8-14 11-14 12-14 11-16 13-10 8-32 26-14 11-11 9-16 13-14 11-11 9-13 11-17 13-12 10-14 11-10 9-11 9-17 14-16 13-9 7-13 11-10 8-14 11-16 13-11 9-10 8-32 26-13 11-16 14-7-1-8-7-9-10-8-7-11-9-5-5-7-8-5-8-3-3-5-1-2 4-9 8-7 8-13 13-2 3v5l15 16 8 7 14 12v2l5 2 8 7 3 4-1 5-13 11-14 12-14 11-13 11-17 14-20 16-11 9-13 11-9 7-13 11-16 12-13 11-11 8-7 1-2-2v-12l9-28 5-16 4-18 1-5v-17l-3-20-5-19-2-9 2 2 6 20 4 18 1 7v22l-6 23-4 11-7 22-1 5v13l6-1 14-12 14-11 10-8h2v-2l11-9 7-6h2l1-3 6-4 13-11 4-3h2v-2l9-7 5-4 5-5h3l1-3h2l2-4 8-6h2l2-4 14-11h2l1-3h2v-2l8-7 4-4h2v-2l2-2-2-6 1-4 2-7-6-7-7-6v-2l-4-2-5-5v-2l-5-2-5-5-9-4-3-5v-2h-2v-6l2-5 4-1 9-7 9-10 3-4 2-5 3-3h3v-2h2l3-6 8 1 5 5 3 4 3 5 6 5 5 5 1 3 4 2 6 7 5 4v2l3 1v2l6 3v2l3 1 4 6 6 3 6-1 2-4 8-7 10-10h2v-2l5-3 8-8h2v-2h2v-2l6-4 1-2 9-5h2l2-4 9-6 4-5 4-3h2v-2l4-3h2v-2l11-9 10-8 15-11 10-8h2l1-3 8-7 4-2v-2l11-9h2v-2l10-7h2l1-3 5-4h2v-2l10-7 11-9 13-11 6-4h2l1-3 9-6 16-13 1-2h2v-2l8-7h2v-2l8-6 4-4h3v-2h3v-2l6-3 13-10 7-7 4-3h2v-2l10-7 5-4 12-9 13-11 5-4 4-4h2v-2l5-3 5-5 9-6 10-8 17-14 5-5 5-4h2l1-3h2v-2l8-4 11-9h2v-2l11-9 10-9 4-2 2-4 3-3 8-6 7-2v-2l8-6 13-11 11-9 1-2 5-3 3-1v-2l5-4 12-9 5-4 1-4-10-3-15-5-15-6-18-6-15-6-8-3-12-4-10-4-10-3-10-5-22-8-7-6 1-7z" fill="#C91E27"/>
<path transform="translate(216,962)" d="m0 0 3 1-15 6-38 14-7 3 2 5 9 6 8 7 11 8 16 12 17 12 20 14 9 6 14 10 13 9 19 14 11 8 12 9 28 20 8 6 28 19 13 10 10 7 3 1 11-15 11-13 20-26h2l3-6v-8l14-2 1 3-1 3 6 9 7 5v2l4 2 11 7 7 6-1 7-7 10-9 11-1 2h-2l-1 3h-2l-2 4-5 6-5 4-9 14v5l9 8v2l4 2 17 13 10 6 10 8 31 21 19 14 10 7 10 6 6 3 1-2-1-4 3-11v-12l-4-2 1-6 3-3-1-7 1-9 2-3v-25l1-13 4-17 6-18 8-17 10-17 10-13 9-10 4-5 8-7 15-12 15-10 20-8 15-5 8-4 11-5 12-2h18l4 2v2h16l10 5 30 8 9 3 16 4-3-7-6-9-4-4 1-2 7 7 8 13 1 5h-11l-34-11-14-3-28-4h-22l-21 3-21 6-17 7-11 6-14 10-14 12-11 11-8 10-9 13-12 23-8 23-4 18v33l3 20 4 15 8 22 16 32v6l-7-2-5-3-7-5v-2l-5-2-18-13-15-10-17-12-16-12-15-10-20-14-17-12-12-9-13-9-5-4-1-5 4-8 12-13 9-11 9-9 7-8 7-10-1-4-8-6-9-6-13-12-4-5-6-1-8 10-26 32-10 13-7 10-4-1-11-8-17-12-16-11-34-24-18-13-16-12-13-9-9-7-10-7-19-13-18-13-12-8-18-13-9-7-10-8-15-11-8-7v-3l20-8z" fill="#C91E27"/>
<path transform="translate(972,178)" d="m0 0 3 3 8 18 11 24 11 25 17 37 13 30 15 34 9 21 16 35 6 9 6-1 24-13 19-10 24-12 3 1-32 16-22 12-14 10-8 1-4-2-3-3v-3h-2l-3-5-2-7-5-10-3-3v-2l-4-2-3-6-5-5-3-9h-2l-2-5h-2l-3-5-3-8-4-6-3-2-1-7-3-1-4-8-5-2-4-9-2-5v-3h-2l-2-3-2-6-2-1-1 2-2-4-5-4-2-5v-8l1-2-6-1 1-8-1-3v-12l-4-2-1-4 1-3-4-14-4-9-1-5v-8l5-8-1-8z" fill="#C91E27"/>
<path transform="translate(1463,655)" d="m0 0h2l5 13 8 25 15 53 13 41 5 15 5 5 8-1 36-13 83-28 23-8 41-14 40-13h4l-1 7-12 29-10 24-33 77-17 40-11 26-6 13-1-2 15-36 11-26 20-48 4-8 8-20 9-21 4-8 8-19 4-10 6-16-6 4-2 3-5 2h-11l-26 7-16 6-27 9-58 20-17 6-12 5-9 3-10 3-8 4-13 5-8 2h-10l-5-4-4-8-2-5-1-4-3-1-1-7-5-5-3-7v-4h-3l-1-5h-2l-3-10-7-16-4-14-2-1-3-9-4-14-2-9-3-6 1-9 2-3-5-1v2l-4 1-2 4-5 6-5 5h-2l-2 4-8 8-7 8-10 11-1 2h-2l-2 4-7 7-7 8-12 13-9 10-13 14-1 2h-2l-2 4-12 12v-3l9-9 7-8 15-16 7-8 22-24 7-8 15-16 12-14 10-10 7-8 11-12z" fill="#C91E27"/>
<path transform="translate(858,1468)" d="m0 0h19l22 5 21 10 13 11 12 12 10 14 6 12 6 18 3 16v8l-3 15-6 20-11 22-8 10-9 10-5 7 3 6 9 9 8 7 23 23 7 8 8 10-4 2 2 11-2 6-5 3-5 1-4-1 6 8 9 10 7 8 6 7 11 9 3 4 1 32v77l-1 53h-1v-100l-1-45-1-16-19-19-7-8-9-10-12-14-9-11-3-2-1 5-1 82-1 164h-1v-255l-1-4h-2v-6l5-15 1-1 8 1h2v-4l-3-1v-2h-2v-2l-2-1v-3h-2v-2l-3-1v-2h-2l-5-5-8-7-5-8 2-5 14-15 10-15 8-18 4-12 3-18-1-2v-18l-4-15-5-13-8-13-1-3h-2v-2h-2l-4-6-11-11-6-3-5-5-10-5-10-4-10-2-38-1-14 3-14 6-5 3-2-1 10-6 16-6z" fill="#C91E27"/>
<path transform="translate(121,681)" d="m0 0 3 4 8 19 15 35 18 41 11 26 17 39 13 28 7 16v5l-15 7-26 10-19 7-3-1 28-11 4-1v-5l-5-4h-1v-5l1-3-2-5h-2l1-4 1-1 1-8h3l1-8h-1l-1-12-2-5 1-8-1-7-3-11-6-16-3-5-2-7-6-18-4-13-3-5-7-21-6-12-9-24-6-14z" fill="#C91E27"/>
<path transform="translate(705,898)" d="m0 0 5 1 12 13 9 11 8 8 7 8 12 14 9 10 9 11 12 13 9 11 11 12 7 8 11 12 9 11 4 4-1 2-7-7-7-8-8-8-7-8-9-9-5-7-5-4-3-5-2-1v-2h-2v-3l-3-1v-2h-2l-3-4v-2l-3-1v-2l-3-1v-2h-2v-2l-4-2-7-6-3-5-5-4v-2l-3-1-2-5h-2l-6-8-10-10-5-6-5-3-3-6-1-4-7-1-1 4-10 12-7 9-11 12-7 9h-2l-2 4-4 6-7 9-4 3-5-2-9-6-7-6-5-5-7-4-5-3-7-3-1-9 7-9 5-4-2 4-5 7 1 4 8 8 13 10 13 11 7-1 7-7 8-10 9-10 11-12 13-17 4-6z" fill="#C91E27"/>
<path transform="translate(477,637)" d="m0 0 4 1 7 8 9 9 9 11 16 17 10 11 9 11 12 13 9 11 11 12 9 11 13 14 9 11 13 14 7 8 9 10 9 11 14 15 7 8 8 11v5l-10 9-7 8-11 13-10 13-7 8v-3l10-12 7-10 2-3h2l2-4 9-12h2l2-4 3-4v-6l-6-9-13-14-7-8-4-5-2-1v-2l-3-1-6-8-12-13-9-9-1-3h-2l-7-8-3-3v-2h-2l-7-9-2-4h-2v-2h-2l-3-4v-2h-2v-3l-3-1-4-6-6-5-7-8-5-5-3-4v-2l-4-2-2-4h-2l-3-5-5-4-6-7v-2h-3l-4-6-3-2v-2h-3l-3-5-4-4-5-3v-2h-2l-1-5-1-7h-2l-7-8-3-2-2 6-2 10-12 36-6 20-1-4 8-27 9-30 3-14z" fill="#C91E27"/>
<path transform="translate(571,973)" d="m0 0 4 1 1 5h2l4 6 2 1v2l3 1 2 4 6 3 7 6 5 2 6 8-1 5-5 6-4 6h-2l-2 4-8 9-8 10-7 8-6 8h-2l-2 5-6 7-9 13h-2l-1 3-5 3h-5l-7-5-3-1v-2h-2l-5-5-10-8-7-4-2-1-3-7-2-3 1-6 7-6 1-2h2l2-4 9-9 9-11 9-9 16-20 11-14 5-8zm0 5-8 8-11 14-13 15-11 13-11 12-12 13-5 6 1 4 11 11 12 9 15 12 5-3 13-14 9-11 13-15 7-8 11-13 8-8 6-8-2-4-11-8-12-9-11-13z" fill="#C91E27"/>
<path transform="translate(1202,560)" d="m0 0h1v8l-10 74-2 12-3 1-27 1h-39l-40-1-1 15v36l1 2 9 2h71l2 1-2 4-12 16-5 5 2-5 7-9 7-10-15 3-10-1h-19l-9 1-14-1-17-2-1-4 1-6 1-28 2-19 2-2h97l5-3 1-5-1-2 2-4 5-4 3-18 4-32z" fill="#C91E27"/>
<path transform="translate(857,652)" d="m0 0 3 1v35l-1 23-10 2h-71l6 8 12 14 8 11 12 13 6 7v2h2l10 13 8 10 11 14 10 13 1 1 8-1 9-4 3 1-13 6-8 1-4-4-10-14-11-13-16-20-11-12-9-11-11-13-8-11-9-11v-3h77l6-1 1-39v-15l-100 1-8-1v-1z" fill="#C91E27"/>
<path transform="translate(201,707)" d="m0 0 6 1 22 7 50 17 36 12 40 14 59 21 16 6h3l3-4-1 6h-7l-18-7-61-21-17-6-22-8-30-10-13-4-32-11-7-2h-9l-10-4-2-1 2 5 5 10 6 18-1 3-10-24z" fill="#C91E27"/>
<path transform="translate(1943,975)" d="m0 0 3 1v41l-4-5-6-5-2-1v-2l-21-8 3-1 6 1v-2l5-2 1-4h2v-2h2v-2h2l2-4 3-4z" fill="#C91E27"/>
<path transform="translate(959,36)" d="m0 0 1 3-9 20-11 25-9 19-16 36-9 20-13 29-8 18-17 38-19 43-13 30-5 14-4 1-7-4-14-7 3-1 11 5 10 4 1-5 8-20 5-11 15-35 17-37 8-19 7-15 13-30 4-8 15-34 7-15 5-11 14-31 6-15z" fill="#C91E27"/>
<path transform="translate(1023,653)" d="m0 0 4 1-1 23v35l-42 1h-54l-18-2-2-4 1-5 1-37 1-10 1-1zm-37 2-72 1-1 10v40l1 3 2 1 9 1 42 1 58-1v-55l-4-1z" fill="#C91E27"/>
<path transform="translate(1334,794)" d="m0 0v3l-10 10-7 8-16 17-11 12-7 8-15 16-7 8-9 10-28 30-9 9-7 8-16 17-11 12-9 10-11 12-15 16-7 8-14 15-3 2 2-4 7-7 7-8 12-13 9-10 11-12 14-15 7-8 15-16 16-17 11-12 10-10 7-8 12-13 7-8 12-13 11-12 14-15 9-10 12-13z" fill="#C91E27"/>
<path transform="translate(706,343)" d="m0 0 6 1 19 8 5 4-5-1-15-7-6-2 1 5 1 4 3 1 2 9v8l-3 1 1 10 3 29 7 48 6 49v8h-1l-5-40-7-49-5-37-5-41z" fill="#C91E27"/>
<path transform="translate(1144,736)" d="m0 0v3l-13 16-11 12-7 8-10 11-11 14-8 10-7 11-1 1-9-1-25-11 3-1 19 7 12 4 2-5 4-6 20-26-1-3h2l2-11 4-2v-2l3 1 2 4 4-5h-3l4-5h4l6-7h2l2-4z" fill="#C91E27"/>
<path transform="translate(1071,1704)" d="m0 0 2 1-9 8-11 9-13 10-13 11-7 7h-2v2l-3 1-4-2-7-8-5-5 1-2 12 12 5-2 14-10 15-12 13-10z" fill="#C91E27"/>
<path transform="translate(1750,893)" d="m0 0 1 3-10 27v6l20 8 16 6 5 2-3 1-30-11-12-5-1-3 5-12z" fill="#C91E27"/>
<path transform="translate(806,1489)" d="m0 0 2 1-22 22-4 6-4 5-5 9-2 3-4-1-4-5 6 2 6-9 12-14 9-10z" fill="#C91E27"/>
<path transform="translate(87,598)" d="m0 0 9 3-3 1h-3l6 17 9 21 6 15-1 3-5-11-5-13-10-21-3-8z" fill="#C91E27"/>
<path transform="translate(798,386)" d="m0 0 7 2 16 8 21 10 11 4h8l4-5-1 6-2 2h-8l-23-9-32-16z" fill="#C91E27"/>
<path transform="translate(396,682)" d="m0 0 1 3-5 20-4 1-25-9 4-1 20 6 3-1z" fill="#C91E27"/>
<path transform="translate(1496,525)" d="m0 0 3 1 3 18 5 19-1 4-6-20-3-17-1-2-5 4-2-1z" fill="#C91E27"/>
<path transform="translate(969,176)" d="m0 0 2 1-8 16-7 15-1-3 8-16 5-12z" fill="#C91E27"/>
<path transform="translate(806,1489)" d="m0 0 2 1-18 18-1-3 9-9z" fill="#D52127"/>
</svg>
