<?xml version="1.0" encoding="UTF-8"?>
<svg version="1.1" viewBox="0 0 1452 1496" width="363" height="374" xmlns="http://www.w3.org/2000/svg">
<path transform="translate(0)" d="m0 0h1452v1496h-1452z"/>
<path transform="translate(1105,388)" d="m0 0 4 1 5 12 9 30 22 76 7 24 11-2 31-9 29-9 36-12 35-12 41-14 27-9 20-7h3l-1 5-12 27-14 32-14 33-15 35-26 60-11 25-1 7 33 14 26 9 45 17 27 10 10 4-1 4-10 9-13 12-14 11-11 9-10 9-14 11-10 9-14 11-11 9-10 8-13 11-13 10-10 8-17 14-14 11-16 13-14 11-11 9-14 11-17 14-11 9-13 11-10 8-13 11-28 22-17 14-13 10-17 14-14 11-16 13-14 11-11 9-15 12-14 11-11 9-13 11-16 13-26 20-10 9-14 11-10 9-13 10-16 13-28 22-16 12-13 11-9 7-15 12-2 1h-6l-20-20-7-8-14-14-7-8-7-6v-2l-4-2-5-6 2-5 8-8h2l2-4 7-8 6-12 4-14v-15l-4-16-5-13-8-14-9-10-14-8-22-8-5-1h-10l-17 3-16 7-13 9-11 10-8 7-5 5-5-1-12-11-11-10-11-9-13-12-14-12-13-10-3-3 1-5 12-14 15-16 32-34 18-18 7-8 15-15 7-8 12-14 24-26 13-15 14-15 12-12 7-8 14-14 9-11 7-7 7-8 14-15 10-11 7-8 16-16 7-8 12-12 7-8 16-17 11-12 7-8 9-10 9-11 16-17 7-7 7-8 8-8 7-8 12-13 7-7 7-8 7-7 7-8 11-12 7-8 9-10 16-17 11-12 15-15 7-8 14-14 7-8 9-9 7-8 9-10 14-15 18-20 11-13 7-8z"/>
<path transform="translate(331,372)" d="m0 0 5 1 8 7 12 12 9 11 10 11 9 11 11 12 9 11 11 12 11 13 15 16 7 8 12 14 14 15 7 8 10 11 7 8 13 14 9 11 12 13 7 8 13 15 7 8 9 10 9 11 10 11 9 11 8 9 8 10 11 13 9 10 9 11 7 7 9 11 13 15 14 15 13 13 1 6-9 11-7 7-7 8-9 10-8 10-13 14-6 7-3 2-6-1-6-5-7-8-14-8-15-6-14-4h-17l-17 5-15 8-14 11-7 8-9 15-4 12-1 6v15l5 17 10 19 8 10 7 7 14 11v5l-13 15-12 14-10 11-7 8-17 17-6-1-18-13-15-10-18-13-11-7-15-11-14-10-11-8-17-12-18-13-16-11-29-20-16-12-14-10-18-13-17-12-19-14-16-11-18-13-16-11-21-16-16-11-19-14-14-10-17-12-15-11-18-13-18-12 1-3 16-7 64-23 45-16 17-7-2-9-11-22-16-36-12-28-30-71-13-32-5-14-2-6 9 3 32 12 50 16 40 13 41 14 46 16 6 1 4-16 9-30 8-26 15-52z"/>
<path transform="translate(717,12)" d="m0 0 5 2 10 19 14 30 20 45 11 25 13 28 8 18 7 14 9 21 8 18 1 1 9-1 20-8 33-16 29-14 36-17 20-8h3l-1 9-8 49-12 91-14 112-10 69-3 16-4 11-6 10-10 13-11 13-7 8-9 10-8 10-13 15-11 13-9 11-24 28-5 6-4 3-6-1-6-5-7-8-7-6-23-11-19-6-11-2h-16l-19 5-12 5-10 6-17 12-12 9h-6l-9-10-9-13-10-11-8-10-12-14-9-10-9-11-7-7-9-11-10-11-9-11-7-8-8-12-4-10-3-18-6-51-7-52-15-109-12-93-2-17v-6l5 1 12 6 33 15 24 11 16 8 39 19 16 8 3-1 5-12 11-23 13-28 18-40 13-28 18-41 13-29 8-21z"/>
<path transform="translate(1105,388)" d="m0 0 4 1 5 12 9 30 22 76 7 24 11-2 31-9 29-9 36-12 35-12 41-14 27-9 20-7h3l-1 5-12 27-14 32-14 33-15 35-26 60-11 25-1 7 33 14 26 9 45 17 27 10 10 4-1 4-10 9-13 12-14 11-11 9-10 9-14 11-10 9-14 11-11 9-10 8-13 11-13 10-10 8-17 14-14 11-16 13-14 11-11 9-14 11-17 14-11 9-13 11-10 8-13 11-28 22-17 14-13 10-17 14-14 11-16 13-14 11-11 9-15 12-14 11-11 9-13 11-16 13-26 20-10 9-14 11-10 9-13 10-16 13-28 22-16 12-13 11-9 7-15 12-2 1h-6l-20-20-7-8-14-14-7-8-7-6v-2l-4-2-5-6 2-5 8-8h2l2-4 7-8 6-12 4-14v-15l-4-16-5-13-8-14-9-10-14-8-22-8-5-1h-10l-17 3-16 7-13 9-11 10-8 7-5 5-5-1-12-11-11-10-11-9-13-12-14-12-13-10-3-3 1-5 12-14 15-16 32-34 18-18 7-8 15-15 7-8 12-14 24-26 13-15 14-15 12-12 7-8 14-14 9-11 7-7 7-8 14-15 10-11 7-8 16-16 7-8 12-12 7-8 16-17 11-12 7-8 9-10 9-11 16-17 7-7 7-8 8-8 7-8 12-13 7-7 7-8 7-7 7-8 11-12 7-8 9-10 16-17 11-12 15-15 7-8 14-14 7-8 9-9 7-8 9-10 14-15 18-20 11-13 7-8zm-19 89-17 17-7 8-9 10-7 8-12 14-15 16-15 15-7 8-8 8-9 11-11 11-7 8-13 14-7 8-13 14-7 8-6 6v2h-2l-7 8-22 24-8 8-7 8-12 13-15 16-9 10-8 8-7 8-10 11-7 8-9 10-8 8v2h-2l-7 8-14 15-9 10-11 12-9 10-14 15-7 7-1 6 13 13 8 7 13 13 8 7 3 4v3l-11 9-9 9-4 3h-6l-11-9-14-14-6-7-5-4-5-5-5 2-10 9-13 13-7 8-15 16-11 12-14 15-11 13-2 4h-2l-7 8-16 16-9 11-6 7 1 5 2 1h12l34-14 19-5 7-1h20l18 3 16 5 16 7 11 7 10 8 10 9 11 14 10 18 6 17 4 21v26l-7 27-5 17v5l4 1 14-7 14-11 10-8 14-12 20-15 10-8 14-12 10-8 14-12 11-8 5-5-2-4-10-7-15-14-8-7-7-8-1-5 16-14 7-7 6-1 9 7 24 24 8 7 3 2 5-1 13-10 14-11 18-14 10-8 17-14 11-9 16-13 14-11 16-13 35-28 13-11 10-8 14-11 16-13 28-22 15-13 11-9 16-13 14-11 13-11 14-11 16-13 10-8 17-14 13-11 11-9 14-11 6-4-1-5-27-9-22-8-36-14-26-9h-3l3-10 12-24 13-30 30-70 13-30 2-6v-5l-8 1-36 12-54 19-46 16-27 9-9 1-9-36-12-43-8-31-1-5z" fill="#E01B2A"/>
<path transform="translate(331,372)" d="m0 0 5 1 8 7 12 12 9 11 10 11 9 11 11 12 9 11 11 12 11 13 15 16 7 8 12 14 14 15 7 8 10 11 7 8 13 14 9 11 12 13 7 8 13 15 7 8 9 10 9 11 10 11 9 11 8 9 8 10 11 13 9 10 9 11 7 7 9 11 13 15 14 15 13 13 1 6-9 11-7 7-7 8-9 10-8 10-13 14-6 7-3 2-6-1-6-5-7-8-14-8-15-6-14-4h-17l-17 5-15 8-14 11-7 8-9 15-4 12-1 6v15l5 17 10 19 8 10 7 7 14 11v5l-13 15-12 14-10 11-7 8-17 17-6-1-18-13-15-10-18-13-11-7-15-11-14-10-11-8-17-12-18-13-16-11-29-20-16-12-14-10-18-13-17-12-19-14-16-11-18-13-16-11-21-16-16-11-19-14-14-10-17-12-15-11-18-13-18-12 1-3 16-7 64-23 45-16 17-7-2-9-11-22-16-36-12-28-30-71-13-32-5-14-2-6 9 3 32 12 50 16 40 13 41 14 46 16 6 1 4-16 9-30 8-26 15-52zm25 91-3 2-11 38-9 29-11 37-1 2h-8l-56-19-41-14-43-15-18-6h-4l1 6 12 27 14 33 15 36 14 32 10 21 4 7-1 3-13 6-28 11-33 12-17 6-10 4-2 4 5 6 10 8 19 14 13 9 17 12 12 9 11 8 18 13 14 10 19 13 24 16 20 13h6l10-9 11-13 9-12 6-7 9 3 24 16 1 5-10 11-8 10-12 13-7 8 1 4 15 11 16 11 17 12 11 8 17 12 14 10 30 20h5v-7l-11-24-7-19-2-9v-29l3-15 6-16 12-23 10-14 8-8 14-10 15-8 15-6 15-4 14-3h23l24 7 21 6h10l1-4-8-11-15-16-7-8-7-7-9-11-11-12-9-11-5-6h-2l-2-4-12-14-11-13-7-9-4-1-5 4-20 25-9 11-8 8-7 1-10-8-7-8-8-7 1-7 15-15 11-14 12-13 7-10 1-4-7-8-11-11-7-8-9-10-12-13-7-8-12-14-9-10-7-8-12-14-13-15-14-15-12-14-6-8-4-4z" fill="#E01B2A"/>
<path transform="translate(717,12)" d="m0 0 5 2 10 19 14 30 20 45 11 25 13 28 8 18 7 14 9 21 8 18 1 1 9-1 20-8 33-16 29-14 36-17 20-8h3l-1 9-8 49-12 91-14 112-10 69-3 16-4 11-6 10-10 13-11 13-7 8-9 10-8 10-13 15-11 13-9 11-24 28-5 6-4 3-6-1-6-5-7-8-7-6-23-11-19-6-11-2h-16l-19 5-12 5-10 6-17 12-12 9h-6l-9-10-9-13-10-11-8-10-12-14-9-10-9-11-7-7-9-11-10-11-9-11-7-8-8-12-4-10-3-18-6-51-7-52-15-109-12-93-2-17v-6l5 1 12 6 33 15 24 11 16 8 39 19 16 8 3-1 5-12 11-23 13-28 18-40 13-28 18-41 13-29 8-21zm2 113-4 5-12 25-5 13-7 15-15 32-16 36-11 25-9 21-3 4-5-1-20-10-19-10-29-14-33-15-5-1-1 1 1 13 15 116 9 65 5 26 3 8 1 1 62 2 14 1 1 1 1 8v21l-6 2-19 2-35 1-1 4 9 12 14 18 11 13 24 28 7 8 9-3 16-8 15-5 16-3h38l22 4 20 7 16 8 7-1 10-13 12-14 10-11 5-6v-2h2l7-8 11-13 8-11v-2l-3-1h-51l-9-1v-36l77-1 4-2 3-14 11-80 10-76 7-50 1-11-6 1-25 12-19 10-28 14-19 10-12 5-6 1-2-6-7-15-9-21-13-29-18-41-14-32-9-21-5-10z" fill="#E01B2A"/>
<path transform="translate(700,1272)" d="m0 0 6 1 12 11 10 9 7 8 12 14 2 4 1 125v25l-7 2-15 1h-27l-1-1z" fill="#E01B2A"/>
<path transform="translate(419,719)" d="m0 0 6 1 13 7 10 7 9 6-1 4-22 26-9 11-7 8-8 10-6 6h-7l-8-7-11-10-8-6 1-5 14-15 11-12 13-17 6-8z" fill="#E01B2A"/>
<path transform="translate(782,962)" d="m0 0h5l14 11 7 7 8 7 15 14 10 9 5 4 1 3-6 8h-2v2h-2l-2 4-14 14-7-1-20-20-2-1v-2l-4-2-16-16-8-7-5-5v-6l8-8 8-7z" fill="#E01B2A"/>
<path transform="translate(681,480)" d="m0 0h65l13 1 2 2 1 15v15l-2 3-18 2-19 1h-43l-2-1v-25l1-11z" fill="#E01B2A"/>
<path transform="translate(1015,483)" d="m0 0v3l-19 19-7 8-17 17-7 8-15 16-12 13-7 8-11 12-7 8-7 7-7 8-9 9-7 8-12 13-16 17-7 7-7 8-13 15-9 10-11 12-7 8-15 16-12 13-10 10-7 8-16 16-7 8-9 10-14 15-9 10-13 15-16 16-7 8-15 15-7 8-12 14-7 7-7 8-13 14-9 11-15 16-12 12-7 8-21 21-7 8-9 9-7 8-9 9-7 8-9 10-3 4 1 5 12 10 11 9 10 9 15 13 11 10 8 7 2 3-4-2-12-11-11-9-5-4v-2l-4-2-12-11-12-9v-2l-5-2-9-7v-5l8-8 9-11 10-11 5-6 4-4h2l2-4 21-21 6-7 8-7 11-12 15-16 7-7 9-11 7-7 7-8 11-12 10-11 7-8 9-10 16-17 7-7 7-8 9-9 7-8 12-13 7-8 13-14 7-8 20-20 7-8 9-9 7-8 15-16 11-12 12-13 9-11 14-15 7-8 4-5h2l2-4 13-13 7-8 12-13 9-9 7-8 7-7 7-8 11-12 9-10 12-13 7-8 7-7 7-8 16-16 7-8z" fill="#140406"/>
<path transform="translate(683,917)" d="m0 0 5 2 5 6 7 6 7 8 11 11 6 5h-3l-10-9-25-25-6 1-12 12h-2l-2 4-15 15-7 8-9 10-5 6h-2l-2 4-12 13-7 8-8 9-5 6-4 4h-2l-2 4-4 5h-2l-2 4-5 6-7 6-3 7v1h11l32-13 14-4 16-3h16l23 4 18 6 17 9 13 9 3 2v2l4 2 9 9 10 13 6 10 7 16 4 15 3 17v24l-7 27-3 9-1 10 6-1 10-7 16-12 13-11 12-10 14-10 4-3 2 1-10 8-16 12-15 13-14 11-13 9-9 4-4-1 1-9 6-21 5-19v-26l-4-21-6-17-10-18-11-14-7-7-16-12-14-8-18-7-18-4-8-1h-20l-16 3-18 6-26 11h-12l-3-3 1-4 9-11 14-15 13-13 1-2h2l2-4 9-10 7-8 14-15 36-39 12-12z" fill="#140406"/>
<path transform="translate(1059,506)" d="m0 0v3l-11 13-6 7h-2l-2 4-6 7h-2l-2 4-8 9-21 21-7 8-11 12-7 8-6 7h-2l-2 4-4 5h-2l-2 4-5 6h-2l-2 4-10 10-9 11-5 5-9 10-7 8-18 18-2 3h-2l-2 4-7 8h-2l-1 4-5 5h-2l-2 4-12 12-2 3h-2l-2 4-9 9-7 8-6 7h-2l-2 4-11 12-2 3h-2l-2 4-7 8-14 14-2 3h-2l-2 4-9 10-4 5-4 4h-2l-2 4-13 14-2 3h-2l-2 4-9 10-10 10-2 4h-2l6 8 6 5v2l4 2 9 9 6 5 5 5v2l4 2 6 6-1 5-14 13h-2v2l-5 5-3 1v2l-6 1-4-4h8l12-11 10-9 2-1-1-5-7-6-22-22-8-7-7-7 1-6 16-16 7-8 15-16 7-8 12-13 11-12 3-4h2l2-4 13-13 7-8 11-13 7-7 7-8 9-9 7-8 28-30 7-8 10-10 7-8 13-14 1-2h2l2-4 10-10 7-8 11-12 10-11 7-8 15-16 10-11 7-8 8-8 7-8 18-18 7-8 9-10 7-8z" fill="#140406"/>
<path transform="translate(395,437)" d="m0 0 6 5 7 8 9 10 9 11 7 7 7 8 11 12 7 8v2h2l7 8 11 12v2h2l9 11 7 7 7 8 11 12v2h2l9 11 12 13 7 8 9 11 12 14 7 7 7 9 10 11 7 8 9 11 11 13 9 11 12 14 5 5v2h2l9 11 13 15 11 12v2h2l7 8 8 8 5 4 2 6-6 8-10 11-5 6h-2l-2 4-10 11-10 13h-2l-2 4-8 9h-2l-2 4-2 2h-7l-9-8-6-7-12-7-16-7 3-1 16 7 11 7 8 9 6 4 5-1 6-5 7-8 10-11 8-10 12-13 7-8 9-10 1-6-7-8-16-16-7-8-24-28-11-12-7-8-12-14-11-14-9-10-9-11-11-12-9-11-12-13-9-11-11-12-7-8-12-14-10-11-7-8-12-13-7-8-12-13-9-10-9-11-16-17-7-8-13-15-11-12-5-6z" fill="#140406"/>
<path transform="translate(965,214)" d="m0 0h1v9l-7 51-15 120-4 33-7 48-6 39-4 12-3 7h-2l-2 5-4 6-3 3-1 2h-2v2h-2v2h-2l-2 5-11 12-5 7h-2l-2 4-9 10-7 9h-2l-2 4-11 13-5 7h-2l-2 4-2 3h-2v2h-2l-2 5-11 12-5 7h-2l-1 3-3 3-4 5h-6l-10-8-4-5 1-2 6 7 5 4 6 1 4-2 2-4 12-13 9-11 12-14 13-16 9-10 9-11 10-11 7-8 13-16 12-16 6-11 4-17 10-68 8-63 13-102z" fill="#140406"/>
<path transform="translate(124,790)" d="m0 0 5 2 21 16 13 9 20 14 28 20 19 14 20 14 18 13 19 14 35 24 10 7 18 13 17 12 16 12 19 13 14 10 13 9 17 12 19 13 1 2-5-2-12-8-14-10-23-16-15-10-14-10-2-1v-2l-5-2-13-10-15-10v-2l-5-2-6-4v-2l-5-2-17-12-19-13-17-12-12-9-14-10-18-13-11-7v-2l-5-2-13-10-16-11-14-10-10-7-13-9-16-12-11-8-2-1z" fill="#140406"/>
<path transform="translate(471,815)" d="m0 0v3l-8 13-10 19-6 16-3 15v29l4 15 9 22 7 15v7l-7-1-25-17-17-12-14-10-18-13-20-14-16-11-8-6-1-4 14-15 7-8 2-1-1 4-5 5-9 10-5 8h2v2l4 2 20 14 14 10 16 11 12 9 17 12 15 10 14 9 7 3-4-11-10-22-6-18-1-7v-23l3-19 8-20 9-17 8-12z" fill="#140406"/>
<path transform="translate(1368,496)" d="m0 0 1 3-8 19-12 28-11 26-15 35-11 25-16 37-3 9v3l9 3 19 8 52 19 39 15 20 7 2 1-1 5h-3l1-4-23-8-64-24-22-8-31-13-1-1 1-7 13-29 15-35 13-30 14-33 15-35z" fill="#140406"/>
<path transform="translate(526,250)" d="m0 0 7 2v1h-6l14 107 6 47 6 42 5 24v3l5 2 51 1 23 2 2 5v28l-2 2-4 1h-9v-1l12-2 1-1v-21l-1-8-1-1-14-1-62-2-3-5-5-25-6-40-20-154v-5z" fill="#140406"/>
<path transform="translate(719,125)" d="m0 0 4 1 7 14 10 24 8 18-1 3-24-54-3-1-4 4-8 16-9 22-5 11-7 15-7 16-5 10-7 17-6 12-5 12-10 23-8 16-6-1-14-7-1-2 6 2 10 5 4-1 8-16 10-24 17-38 19-41 10-23 7-16 8-15z" fill="#140406"/>
<path transform="translate(552,689)" d="m0 0 5 4 5 6v2h2l7 8 11 13 13 15 11 12 14 15 7 8 8 11-1 4h-10l-27-8-18-5h-23l-26 6-13 5-5 1 4-3 16-6 26-6h19l16 4 25 8 15 2-4-6-7-9-5-5-1-3-4-2-9-11-9-9-9-11-9-10-9-11-7-7-8-10z" fill="#140406"/>
<path transform="translate(699,1270)" d="m0 0 6 1 9 7 7 6 1 3-4-2-8-8-7-4-3-1 1 44v155l27 1v1h-28l-1-1v-35l-1-166z" fill="#140406"/>
<path transform="translate(676,102)" d="m0 0 1 3-14 30-27 60-7 14-9 20-4 8-3 1-42-21-23-11-49-23 3-1 34 16 22 10 16 8 17 8 17 9 7 1 5-12 7-14 11-23 9-20 15-33z" fill="#140406"/>
<path transform="translate(557,821)" d="m0 0h17l14 4-4 1-8-2-14-1-17 4-16 8-10 7-3 3h-2l-2 4h-2l-2 4-7 10-7 14-2 10v15l3 12 4 9 9 16 8 10 6 7-4-2-9-9-9-14-7-15-4-14v-15l3-12 4-9 7-12 10-11 15-11 15-7z" fill="#140406"/>
<path transform="translate(780,962)" d="m0 0 2 1-9 10-13 12v6l10 10 8 7 12 12 2 1v2l4 2 18 18 7 1 15-15 1-2h2v-2l5-5 2-4-5-5-12-11-4-5 4 2 9 9 9 7 1 1v5l-11 12-1 2h-2l-2 4-7 8-3 3-7-2-8-7-11-11-8-7-6-5-7-8-13-12-5-5-1-5 2-3h2v-2l11-9z" fill="#140406"/>
<path transform="translate(418,718)" d="m0 0h6l12 6 14 9 9 6v4l-6 8-5 6h-2l-2 4-11 13-9 11h-2l-2 5-7 8-6 7-4 3h-5l-12-11-4-5 4 2 9 9 2 1h7l8-8 10-13 10-11 11-14 9-10 4-5-1-4-13-8-11-7-8-4h-4l-3 3z" fill="#140406"/>
<path transform="translate(356,463)" d="m0 0 4 2 6 9 10 11-1 2-12-13-5-7-3 2-11 35-9 31-6 19-5 18-2 2-10-1-17-6 3-1 15 5h8l7-22 13-44 8-26 4-14z" fill="#140406"/>
<path transform="translate(452,573)" d="m0 0 6 5 7 8 7 7 7 8 9 10 10 10 1 4-6 9-9 10-9 11-11 13-11 11-1 7 6 7-4-2-5-3-1-6 4-6 18-18 7-9 10-11 9-12-1-5-11-10-9-11-14-15-9-10z" fill="#140406"/>
<path transform="translate(526,660)" d="m0 0 5 2 7 9 13 15 1 3h-2l-9-11-7-8-2-1v-3l-3-1-2-2-9 9-13 17-4 5h-2l-2 4-7 8-8 7-7-1-4-4v-2l-4-2-9-10h3l9 10 7 5 7-1 9-9 9-11 8-10 14-17z" fill="#140406"/>
<path transform="translate(493,365)" d="m0 0h1l8 60 7 53 3 27 3 13 5 10-1 2-3-4-4-9-2-6-6-54-6-44-3-25-2-14z" fill="#140406"/>
<path transform="translate(522,956)" d="m0 0 4 2 9 6 1 7-4 6-5 5-10 12-2 3h-2l-1 4h-2l-2 4-4 5h-2l-2 4-23 23h-7l-4-4 5 2 5-1 21-21 9-11 12-13 9-11 6-7v-5l-10-8z" fill="#140406"/>
<path transform="translate(151,517)" d="m0 0 7 1 6 2-4 1-6-2 3 9 8 18 18 43 16 38 11 25 1 5-3-4-9-20-14-33-11-26-8-20-7-15-8-18z" fill="#140406"/>
<path transform="translate(873,1047)" d="m0 0h6l9 7 21 21 8 7 5 4 4-1 16-11 6-5 2 1-12 10-13 9-5-1-7-7-8-7-21-21-6-4-6 1-13 13-9 7-1 4 3 4v2h-2v-2h-2l-2-4 1-5 10-8 12-11z" fill="#140406"/>
<path transform="translate(662,1086)" d="m0 0 6 1 16 7 10 7 8 9 9 16 6 17 2 10v15l-5 17-8 13-3 2 2-5 6-9 4-12 2-12-2-16-5-16-7-14-9-12-8-6-14-7-10-4z" fill="#140406"/>
<path transform="translate(641,1082)" d="m0 0h10l8 2v1h-19l-14 2-12 5-12 7-11 9-10 9-7 7-2 1h-6l-4-4h3l3 2 4-1 6-6h2l2-4 8-7 13-10 16-8 10-3z" fill="#140406"/>
<path transform="translate(709,626)" d="m0 0h16l11 2v1h-28l-11 2-13 5-13 7-12 8-18 14-8 1-4-4 1-2 3 3h6l12-9 14-10 13-8 12-5z" fill="#140406"/>
<path transform="translate(241,816)" d="m0 0 5 2 36 24 11 7 9 5 6-4 6-5 9-11 8-10v3l-10 13-11 12-5 4h-6l-17-11-27-18-14-10z" fill="#140406"/>
<path transform="translate(612,517)" d="m0 0h12v1l-20 2-22 1-3 1 8 11 12 15 3 4v2h2l7 9v3l-10-11-10-13-14-18-1-5 1-1z" fill="#140406"/>
<path transform="translate(867,1197)" d="m0 0 2 1-13 11-14 11-16 13-13 10-14 11-4 3-2-1 8-7 12-9 14-11 16-13 14-11z" fill="#140406"/>
<path transform="translate(1203,925)" d="m0 0 2 1-11 10-9 7-16 13-14 11-9 8-6 5-2-1 11-10 14-11 10-9 14-11z" fill="#140406"/>
<path transform="translate(130,736)" d="m0 0 4 2 14 10 17 12 10 7 14 10 12 9 1 2-5-2-12-9-18-13-10-7-14-10-12-9z" fill="#140406"/>
<path transform="translate(1132,462)" d="m0 0 2 3 13 44 6 20 9-1 11-3 4 1-22 6-4-1-9-31-10-34z" fill="#140406"/>
<path transform="translate(1347,809)" d="m0 0 2 1-11 10-14 11-16 13-20 16-2-1 8-7 14-11 14-12 8-6z" fill="#140406"/>
<path transform="translate(560,578)" d="m0 0 7 6 9 10 7 8 12 14 14 17 3 3-1 2-7-7-9-11-1-3h-2l-8-10-10-11v-2h-2l-6-7v-2h-2l-4-5z" fill="#140406"/>
<path transform="translate(390,502)" d="m0 0 7 6 9 11 10 11 7 8 12 14 9 10v2h-2l-9-11-12-13-9-11-12-13-8-10z" fill="#140406"/>
<path transform="translate(975,1109)" d="m0 0 2 1-10 9-5 2v2l-11 9-16 13-14 11-5 4-2-1 8-7 14-11 11-9 14-12z" fill="#140406"/>
<path transform="translate(348,816)" d="m0 0 4 1 16 10 10 7 1 3-8 10-9 10v-3l12-14 1-5-11-8-16-10z" fill="#140406"/>
<path transform="translate(912,1160)" d="m0 0 2 1-14 12-11 9-13 11-5 4-2-1 12-11 14-11 10-9z" fill="#140406"/>
<path transform="translate(148,710)" d="m0 0 3 1-7 3-18 7h-3l-1 3-1 4 4 2 4 5-4-2-7-6-1-3 4-4 21-8z" fill="#140406"/>
<path transform="translate(1015,1077)" d="m0 0h2v2l-14 11-17 14-6 4h-3l8-7 14-11z" fill="#140406"/>
<path transform="translate(202,788)" d="m0 0 4 2 20 14 15 11h-3l-12-8-15-11-9-7z" fill="#140406"/>
<path transform="translate(882,1108)" d="m0 0 5 2 5 4-2 5-16 12h-3l8-7 9-7 1-4-4-1z" fill="#140406"/>
<path transform="translate(771,1273)" d="m0 0h2v2l-11 9-4 3-5 1-2-3 8-2z" fill="#140406"/>
<path transform="translate(869,1132)" d="m0 0 2 1-12 11-10 8-2-1 10-9 11-9z" fill="#140406"/>
<path transform="translate(528,541)" d="m0 0 7 6 9 11 4 4-1 2-8-8-9-11z" fill="#140406"/>
<path transform="translate(1039,457)" d="m0 0v3l-16 17-3 2 2-4 16-17z" fill="#140406"/>
<path transform="translate(806,589)" d="m0 0v3l-6 8-7 1-7-4 3-1 3 2h6z" fill="#140406"/>
<path transform="translate(1243,893)" d="m0 0 2 1-11 10-7 5-2-1 8-7z" fill="#140406"/>
<path transform="translate(66,437)" d="m0 0h6l8 4 7 3-3 1-17-7 1 5-2-2z" fill="#140406"/>
<path transform="translate(375,771)" d="m0 0v3l-4 4 1 5 4 4-6-2-2-2v-5z" fill="#140406"/>
<path transform="translate(1337,749)" d="m0 0 5 1-1 5-10 7-2-1 6-5 4-1 1-5z" fill="#140406"/>
<path transform="translate(1366,793)" d="m0 0h2v2l-11 9-2-1z" fill="#140406"/>
<path transform="translate(220,675)" d="m0 0 4 4-2 5-5 2-3-1 7-4z" fill="#140406"/>
</svg>
